<?xml version="1.0" encoding="UTF-8" standalone="no"?>
<!-- Created with Inkscape (http://www.inkscape.org/) -->

<svg
   version="1.1"
   id="svg834"
   inkscape:version="1.1.1 (3bf5ae0d25, 2021-09-20, custom)"
   sodipodi:docname="informationproblem.svg"
   inkscape:export-filename="/home/loaloa/gdrive/projects/biohybrid MEA/master_thesis/blogpost/informationproblem.png"
   inkscape:export-xdpi="900.02002"
   inkscape:export-ydpi="900.02002"
   width="159.2"
   height="48.654053"
   xmlns:inkscape="http://www.inkscape.org/namespaces/inkscape"
   xmlns:sodipodi="http://sodipodi.sourceforge.net/DTD/sodipodi-0.dtd"
   xmlns="http://www.w3.org/2000/svg"
   xmlns:svg="http://www.w3.org/2000/svg">
  <sodipodi:namedview
     id="namedview836"
     pagecolor="#191919"
     bordercolor="#eeeeee"
     borderopacity="1"
     inkscape:pageshadow="0"
     inkscape:pageopacity="0"
     inkscape:pagecheckerboard="0"
     inkscape:document-units="mm"
     showgrid="false"
     inkscape:zoom="6.3496763"
     inkscape:cx="79.452869"
     inkscape:cy="44.805433"
     inkscape:window-width="1920"
     inkscape:window-height="1015"
     inkscape:window-x="1920"
     inkscape:window-y="36"
     inkscape:window-maximized="1"
     inkscape:current-layer="layer1"
     showguides="true"
     inkscape:guide-bbox="true"
     fit-margin-top="0"
     fit-margin-left="0"
     fit-margin-right="0"
     fit-margin-bottom="0">
    <sodipodi:guide
       position="3.8146973e-07,371.90456"
       orientation="-1,0"
       id="guide915"
       inkscape:label=""
       inkscape:locked="false"
       inkscape:color="rgb(0,0,255)" />
    <sodipodi:guide
       position="159.2,388.87598"
       orientation="-1,0"
       id="guide917"
       inkscape:label=""
       inkscape:locked="false"
       inkscape:color="rgb(0,0,255)" />
    <sodipodi:guide
       position="14.935392,303.46016"
       orientation="0,-1"
       id="guide67416" />
    <sodipodi:guide
       position="83.02857,395.24027"
       orientation="1,0"
       id="guide35639" />
  </sodipodi:namedview>
  <defs
     id="defs831">
    <marker
       style="overflow:visible"
       id="Arrow2Mend"
       refX="0"
       refY="0"
       orient="auto"
       inkscape:stockid="Arrow2Mend"
       inkscape:isstock="true">
      <path
         transform="scale(-0.6)"
         d="M 8.7185878,4.0337352 -2.2072895,0.01601326 8.7185884,-4.0017078 c -1.7454984,2.3720609 -1.7354408,5.6174519 -6e-7,8.035443 z"
         style="fill:context-stroke;fill-rule:evenodd;stroke:context-stroke;stroke-width:0.625;stroke-linejoin:round"
         id="path34033" />
    </marker>
    <marker
       style="overflow:visible"
       id="Arrow1Lend"
       refX="0"
       refY="0"
       orient="auto"
       inkscape:stockid="Arrow1Lend"
       inkscape:isstock="true">
      <path
         transform="matrix(-0.8,0,0,-0.8,-10,0)"
         style="fill:context-stroke;fill-rule:evenodd;stroke:context-stroke;stroke-width:1pt"
         d="M 0,0 5,-5 -12.5,0 5,5 Z"
         id="path34009" />
    </marker>
    <linearGradient
       id="linearGradient25334"
       inkscape:swatch="solid">
      <stop
         style="stop-color:#c1c1c1;stop-opacity:1;"
         offset="0"
         id="stop25332" />
    </linearGradient>
    <linearGradient
       id="linearGradient25290"
       inkscape:swatch="solid">
      <stop
         style="stop-color:#c6c6c6;stop-opacity:1;"
         offset="0"
         id="stop25288" />
    </linearGradient>
    <filter
       style="color-interpolation-filters:sRGB"
       inkscape:label="Invert"
       id="filter8074"
       x="-0.030476115"
       y="-0.14991612"
       width="1.0607789"
       height="1.2999442">
      <feColorMatrix
         values="1 0 0 0 0 0 1 0 0 0 0 0 1 0 0 -0.21 -0.72 -0.07 2 0 "
         result="color2"
         id="feColorMatrix8072" />
    </filter>
    <filter
       style="color-interpolation-filters:sRGB"
       inkscape:label="Invert"
       id="filter8074-5"
       x="-0.024328649"
       y="-0.061292861"
       width="1.0485992"
       height="1.1225957">
      <feColorMatrix
         values="1 0 0 0 0 0 1 0 0 0 0 0 1 0 0 -0.21 -0.72 -0.07 2 0 "
         result="color2"
         id="feColorMatrix8072-3" />
    </filter>
    <filter
       style="color-interpolation-filters:sRGB"
       inkscape:label="Invert"
       id="filter23117"
       x="-0.024328649"
       y="-0.061292861"
       width="1.0485992"
       height="1.1225957">
      <feColorMatrix
         values="1 0 0 0 0 0 1 0 0 0 0 0 1 0 0 -0.21 -0.72 -0.07 2 0 "
         result="color2"
         id="feColorMatrix23115" />
    </filter>
    <marker
       style="overflow:visible"
       id="Arrow2Mend-5"
       refX="0"
       refY="0"
       orient="auto"
       inkscape:stockid="Arrow2Mend"
       inkscape:isstock="true">
      <path
         transform="scale(-0.6)"
         d="M 8.7185878,4.0337352 -2.2072895,0.01601326 8.7185884,-4.0017078 c -1.7454984,2.3720609 -1.7354408,5.6174519 -6e-7,8.035443 z"
         style="fill:context-stroke;fill-rule:evenodd;stroke:context-stroke;stroke-width:0.625;stroke-linejoin:round"
         id="path34033-9" />
    </marker>
  </defs>
  <g
     inkscape:groupmode="layer"
     id="layer2"
     inkscape:label="bg"
     transform="translate(-25.4,-42.221927)">
    <rect
       style="fill:#000000;fill-opacity:1;stroke:none;stroke-width:0.649482;stroke-linecap:round;stroke-linejoin:miter;stroke-miterlimit:4;stroke-dasharray:none;stroke-opacity:1;paint-order:stroke markers fill"
       id="rect35841"
       width="159.2"
       height="37.913395"
       x="25.4"
       y="47.502422" />
  </g>
  <g
     inkscape:label="Layer 1"
     inkscape:groupmode="layer"
     id="layer1"
     transform="translate(-25.4,-42.221927)">
    <path
       style="fill:#dfdfdf;fill-opacity:1;stroke:#cfcfcf;stroke-width:0.105514;stroke-opacity:1"
       d="m 38.814724,82.573967 c -1.295943,-0.22767 -2.6558,-1.01277 -3.266287,-1.88575 -0.203808,-0.291436 -0.538173,-0.560403 -1.00761,-0.810519 -0.926403,-0.493592 -1.458188,-0.961661 -1.979496,-1.742325 -0.489181,-0.732558 -0.797126,-1.630766 -0.905252,-2.640446 -0.07095,-0.662565 -0.09833,-0.716977 -0.550994,-1.095363 -0.634688,-0.530532 -1.22888,-1.472955 -1.454717,-2.307269 -0.266925,-0.986099 -0.18735,-2.339671 0.185224,-3.150748 l 0.278694,-0.606706 -0.284329,-0.60671 c -0.259256,-0.553211 -0.4003,-1.331083 -0.399022,-1.891321 0.0012,-0.527278 0.139862,-1.301454 0.39832,-1.852903 0.155997,-0.332846 0.401698,-0.760178 0.546006,-0.949629 0.243336,-0.319459 0.258175,-0.405717 0.204498,-1.188571 -0.137006,-1.998078 0.930262,-3.842072 2.691673,-4.650577 l 0.60029,-0.275538 0.0036,-0.913402 c 0.0041,-0.99513 0.189005,-1.560096 0.752294,-2.298602 0.359808,-0.471736 2.973495,-2.220553 4.088979,-2.735939 2.079036,-0.960572 3.892354,-1.03239 4.986933,-0.197512 l 0.350166,0.267086 0.350169,-0.267086 c 1.094583,-0.834878 2.907902,-0.76306 4.986933,0.197512 1.115484,0.515386 3.729163,2.264203 4.088972,2.735939 0.563289,0.738506 0.748194,1.303472 0.752298,2.298602 l 0.0036,0.913402 0.633086,0.290461 c 0.39893,0.18303 0.870046,0.52815 1.27375,0.9331 1.043374,1.046586 1.495666,2.272017 1.38392,3.749557 -0.0554,0.732481 -0.03968,0.820319 0.204031,1.139833 0.145229,0.190404 0.391684,0.618518 0.547677,0.951364 0.258447,0.551449 0.391225,1.173297 0.391225,1.871347 0,0.686154 -0.132683,1.319666 -0.391927,1.872877 l -0.284325,0.60671 0.278694,0.606706 c 0.372574,0.811077 0.452145,2.164649 0.185224,3.150748 -0.222627,0.822438 -0.800656,1.747031 -1.446192,2.313259 -0.461681,0.404966 -0.480727,0.445858 -0.592282,1.271474 -0.149428,1.105925 -0.450685,1.893991 -1.019295,2.666392 -0.516941,0.702213 -0.92675,1.04406 -1.831651,1.527893 -0.397989,0.212801 -0.778913,0.529352 -1.050305,0.872824 -1.242986,1.57311 -3.639302,2.27 -5.667635,1.64826 -0.907832,-0.27827 -1.599325,-0.70809 -2.278054,-1.416 l -0.518078,-0.540343 -0.518078,0.540343 c -0.284942,0.29719 -0.747887,0.68616 -1.028766,0.86437 -0.974614,0.61839 -2.557118,0.93263 -3.692294,0.7332 z m 2.624997,-0.51636 c 0.764967,-0.29139 1.755776,-1.01703 2.150838,-1.575197 0.167769,-0.237031 0.376254,-0.430969 0.463303,-0.430969 0.08705,0 0.295535,0.193938 0.463304,0.430969 0.39026,0.551387 1.376774,1.277877 2.150838,1.583927 0.498286,0.19702 0.807268,0.23883 1.764705,0.23883 0.957438,0 1.26642,-0.0418 1.764702,-0.23883 0.78255,-0.3094 1.764817,-1.03641 2.150842,-1.591907 0.214811,-0.309121 0.5215,-0.549802 1.03693,-0.813756 1.692842,-0.866911 2.802831,-2.637834 2.802831,-4.471738 0,-0.531545 0.02863,-0.608405 0.275838,-0.740709 0.414392,-0.221779 1.156983,-1.095219 1.463113,-1.720928 0.59414,-1.214381 0.594017,-2.696672 -3.19e-4,-3.869546 l -0.265342,-0.523633 0.21521,-0.421853 c 0.771607,-1.512475 0.620859,-3.390183 -0.377148,-4.697643 -0.349141,-0.457397 -0.356622,-0.487749 -0.272309,-1.104271 0.118159,-0.864015 -0.02756,-1.793087 -0.405359,-2.584726 -0.427332,-0.895392 -1.44801,-1.854112 -2.307624,-2.167542 l -0.626007,-0.228256 0.05603,-0.817406 c 0.06508,-0.949489 -0.115638,-1.635304 -0.611164,-2.319358 -0.36739,-0.507165 -2.930972,-2.245987 -4.121174,-2.795298 -2.024947,-0.93457 -3.923329,-0.979391 -4.738321,-0.111871 -0.310039,0.330021 -0.529089,0.330021 -0.839127,0 -0.814993,-0.86752 -2.713378,-0.822699 -4.738325,0.111871 -1.190198,0.549311 -3.753789,2.288133 -4.121178,2.795298 -0.495526,0.684054 -0.676244,1.369869 -0.611161,2.319358 l 0.05603,0.817406 -0.626012,0.228256 c -0.859613,0.31343 -1.880292,1.27215 -2.307624,2.167542 -0.377812,0.791639 -0.523516,1.720711 -0.405353,2.584726 0.08431,0.616522 0.07683,0.646874 -0.272313,1.104271 -0.998003,1.30746 -1.148755,3.185168 -0.377148,4.697643 l 0.215214,0.421853 -0.265346,0.523633 c -0.594344,1.172874 -0.594467,2.655165 -3.27e-4,3.869546 0.30613,0.625709 1.048716,1.499149 1.463107,1.720928 0.247213,0.132304 0.275835,0.209164 0.275835,0.740709 0,1.835073 1.112002,3.60842 2.802835,4.46978 0.500463,0.254949 0.815192,0.497779 0.995311,0.767939 0.496069,0.744052 1.605296,1.487192 2.664685,1.785252 0.781705,0.21993 2.272251,0.1447 3.057187,-0.1543 z m -2.767092,-1.12367 c -0.791196,-0.2103 -1.579808,-0.776309 -2.087422,-1.498195 -0.346516,-0.492786 -0.518062,-0.635419 -0.944026,-0.784907 -1.554509,-0.545547 -2.583319,-2.219276 -2.411423,-3.923037 0.03565,-0.353334 0.02847,-0.693992 -0.01591,-0.757013 -0.0444,-0.06303 -0.348945,-0.284903 -0.67677,-0.493062 -0.631295,-0.400852 -1.135332,-1.03198 -1.349871,-1.690227 -0.248499,-0.762435 -0.105699,-2.291999 0.213977,-2.291999 0.06588,0 0.458781,0.166508 0.873105,0.370021 0.828711,0.407054 1.877101,0.585961 2.253444,0.384546 0.295654,-0.15823 0.395608,-0.610957 0.200597,-0.908582 -0.119786,-0.182811 -0.296244,-0.253374 -0.769797,-0.307817 -1.680894,-0.193252 -2.883709,-1.467711 -2.895996,-3.068491 -0.0071,-0.919122 0.246773,-1.630452 0.802281,-2.248312 0.251799,-0.280057 0.471687,-0.578228 0.488647,-0.662605 0.01695,-0.08437 -0.0323,-0.408305 -0.109469,-0.719851 -0.376278,-1.519143 0.290877,-2.99624 1.680484,-3.720625 0.683175,-0.356133 2.060197,-0.356133 2.743371,0 1.015586,0.529411 1.621168,1.401058 1.779928,2.561948 0.09393,0.686831 0.279966,0.933764 0.703481,0.933764 0.443687,0 0.610551,-0.342639 0.553718,-1.13699 -0.130038,-1.817411 -1.598547,-3.437825 -3.511939,-3.875213 -0.61792,-0.141253 -0.78744,-0.381086 -0.789805,-1.117414 -0.0036,-1.092409 0.919461,-2.016723 2.028616,-2.031582 0.72851,-0.0098 1.299244,0.27766 1.748837,0.880707 0.446223,0.598523 0.7503,0.731613 1.119237,0.489875 0.364698,-0.238956 0.354461,-0.660877 -0.02887,-1.190049 -0.334512,-0.461784 -0.886053,-0.956458 -1.252637,-1.123485 -0.405502,-0.184759 -0.272716,-0.359038 0.52471,-0.688661 1.530382,-0.632596 2.51928,-0.729321 3.149826,-0.308086 0.665165,0.444358 0.727481,0.711762 0.727665,3.122547 l 2.11e-4,2.148641 -0.342924,-0.06845 c -0.188605,-0.03765 -0.609573,-0.09577 -0.93548,-0.129149 -0.536661,-0.05497 -0.608823,-0.03747 -0.764979,0.185469 -0.09483,0.135391 -0.172419,0.330563 -0.172419,0.433717 0,0.305706 0.386727,0.609608 0.775755,0.609608 0.456823,0 1.021253,0.38051 1.255234,0.846218 0.171358,0.341071 0.184494,1.013125 0.184649,9.445642 2.12e-4,10.086133 0.01595,9.839845 -0.696761,10.882545 -0.466247,0.682118 -1.275612,1.244214 -2.094995,1.454954 -0.764912,0.19673 -1.197345,0.19532 -1.956227,-0.006 z m 2.476837,-0.460488 c 0.668695,-0.327689 1.314,-0.972568 1.643751,-1.642678 l 0.258259,-0.524822 0.02804,-9.453592 0.02804,-9.45359 -0.230392,-0.292896 c -0.247771,-0.314991 -0.782319,-0.583867 -1.160779,-0.583867 -0.681368,0 -0.977652,-1.020525 -0.449593,-1.548584 0.244772,-0.244771 0.328842,-0.266371 0.817736,-0.210101 0.299706,0.0345 0.65175,0.09374 0.782327,0.13165 l 0.237407,0.06893 v -2.071386 -2.071386 l -0.361715,-0.39413 c -0.352714,-0.384322 -0.379624,-0.393858 -1.081522,-0.383241 -0.542233,0.0082 -0.935401,0.09502 -1.593723,0.351911 l -0.873918,0.341023 0.402886,0.291847 c 1.150622,0.833507 1.602795,2.024607 0.943815,2.486175 -0.312818,0.219105 -0.983583,0.204228 -1.183399,-0.02625 -0.08805,-0.101557 -0.312842,-0.369778 -0.499546,-0.596047 -0.186699,-0.226267 -0.492989,-0.475545 -0.680638,-0.553949 -1.166494,-0.487391 -2.482599,0.386956 -2.482599,1.649296 0,0.648974 0.114099,0.799644 0.673276,0.88906 1.904599,0.304557 3.662597,2.435183 3.674584,4.453458 0.0048,0.810891 -0.683944,1.291793 -1.353927,0.94533 -0.34069,-0.176177 -0.382878,-0.266107 -0.488196,-1.04065 -0.09721,-0.714957 -0.315917,-1.180609 -0.802363,-1.708337 -1.176547,-1.276401 -3.031097,-1.270463 -4.214607,0.01349 -0.744398,0.807579 -0.957621,1.633746 -0.690621,2.675945 0.09146,0.356991 0.166286,0.737436 0.166286,0.845437 0,0.108002 -0.23422,0.464026 -0.520491,0.791161 -1.098139,1.254902 -1.132583,2.718039 -0.09182,3.900404 0.506704,0.575648 1.059892,0.880323 1.746253,0.961777 1.00958,0.119809 1.292888,0.343126 1.292888,1.019111 0,0.243488 -0.08275,0.435583 -0.258938,0.601103 -0.236162,0.221861 -0.332,0.239029 -1.089602,0.19517 -0.646346,-0.03741 -0.990402,-0.122837 -1.550561,-0.384964 -0.395947,-0.185288 -0.740713,-0.316069 -0.766152,-0.290634 -0.02544,0.02544 -0.07183,0.32832 -0.103088,0.67307 -0.09898,1.091648 0.505193,2.287604 1.378481,2.728667 0.740258,0.373874 0.807144,0.505213 0.807144,1.584867 0,1.157106 0.203493,1.804561 0.793438,2.524512 0.398495,0.486314 1.249307,1.043698 1.766544,1.157302 0.204242,0.04486 0.4206,0.252194 0.713953,0.684176 0.435966,0.641987 1.083844,1.16438 1.765711,1.423728 0.626446,0.238262 1.964737,0.157422 2.607402,-0.157504 z M 39.233274,78.47239 c -0.147589,-0.1375 -0.241402,-0.40098 -0.291171,-0.81774 -0.09876,-0.82702 -0.387712,-1.396072 -0.999479,-1.968306 -0.526485,-0.492463 -1.294224,-0.809612 -1.959872,-0.809612 -0.379919,0 -0.758969,-0.306071 -0.855533,-0.690814 -0.134948,-0.537663 0.325763,-1.10293 0.898918,-1.10293 0.149935,0 0.207166,-0.110761 0.258977,-0.501193 0.142254,-1.071979 1.012101,-2.400894 2.015799,-3.079638 1.239477,-0.838195 3.089273,-1.068419 3.432444,-0.427205 0.146114,0.273019 0.124751,0.860136 -0.03916,1.075864 -0.174137,0.229203 -0.617924,0.399161 -1.050057,0.402144 -0.763724,0.0053 -1.87238,0.779951 -2.298983,1.60644 -0.112233,0.217435 -0.232784,0.604904 -0.26789,0.861037 -0.06111,0.445817 -0.0489,0.473417 0.286015,0.646606 0.534672,0.276492 1.438452,1.181637 1.785479,1.788176 0.335741,0.586814 0.630075,1.657713 0.63258,2.301574 0.002,0.54991 -0.368383,0.918456 -0.923377,0.918456 -0.255647,0 -0.487917,-0.07542 -0.624704,-0.202859 z m 1.011503,-0.181467 c 0.229183,-0.160527 0.243867,-0.228649 0.199222,-0.924314 -0.08547,-1.331738 -0.948505,-2.693669 -2.154994,-3.400722 -0.449904,-0.263663 -0.460436,-0.282374 -0.458175,-0.813792 0.0061,-1.419174 1.278096,-2.699144 2.869781,-2.887659 0.844216,-0.09998 1.184527,-0.616344 0.715393,-1.085482 -0.26308,-0.263077 -0.894799,-0.278443 -1.695459,-0.04124 -0.799244,0.236785 -1.356459,0.586675 -1.973757,1.239374 -0.642143,0.678967 -1.016982,1.389831 -1.186079,2.249324 -0.125803,0.639443 -0.129867,0.644791 -0.54043,0.710441 -0.297955,0.04765 -0.446088,0.137281 -0.529531,0.320419 -0.255388,0.560522 0.121544,1.008437 0.848634,1.008437 1.021744,0 2.341024,1.03167 2.68035,2.096024 0.09926,0.311335 0.180466,0.726799 0.180466,0.923249 0,0.392542 0.302522,0.779245 0.60961,0.779245 0.103156,0 0.298888,-0.07798 0.434969,-0.1733 z m -5.490706,-9.626318 c -0.337648,-0.268014 -0.445322,-0.638702 -0.298047,-1.026067 0.143968,-0.378667 0.39753,-0.561844 0.787383,-0.568831 0.418455,-0.0075 1.099744,-0.329089 1.409121,-0.665153 0.246172,-0.267408 0.233801,-0.496543 -0.0268,-0.496543 -0.325217,0 -1.438292,-0.673851 -1.930672,-1.168819 -0.635958,-0.6393 -1.020104,-1.306989 -1.241914,-2.158574 -0.354389,-1.360591 -0.10988,-2.05384 0.724394,-2.05384 0.544578,0 0.907605,0.323093 0.907605,0.807767 0,0.897851 0.573713,1.947639 1.342785,2.457055 0.964185,0.638646 2.279672,0.6617 3.108651,0.05448 1.049575,-0.768808 1.331766,-0.840859 1.812445,-0.462754 0.223337,0.175677 0.278015,0.307922 0.278015,0.672408 0,0.403373 -0.05333,0.502876 -0.480663,0.896777 -0.507015,0.467351 -1.340376,0.908458 -1.928211,1.020623 -0.193244,0.03689 -0.374516,0.14414 -0.402834,0.238367 -0.431631,1.436333 -1.683312,2.481944 -3.129436,2.614236 -0.55929,0.05116 -0.693631,0.02792 -0.931815,-0.161128 z m 1.754464,-0.302678 c 0.713902,-0.225606 1.629865,-1.137613 1.917823,-1.909542 0.206093,-0.552482 0.220278,-0.564896 0.911365,-0.797465 0.750407,-0.252537 1.808222,-0.916657 1.984401,-1.245854 0.161368,-0.301517 0.07312,-0.619133 -0.235867,-0.84893 -0.315638,-0.234742 -0.429737,-0.19773 -1.197823,0.388561 -0.592194,0.45203 -1.25915,0.627978 -2.141219,0.564869 -0.853201,-0.06105 -1.282854,-0.261242 -1.95113,-0.909128 C 35.25782,63.0826 34.874108,62.26709 34.874108,61.64495 c 0,-0.433369 -0.353655,-0.907144 -0.677149,-0.907144 -0.394675,0 -0.637354,0.366129 -0.613035,0.924879 0.07489,1.720745 1.29201,3.32236 2.997283,3.944132 0.381383,0.13906 0.614216,0.284815 0.614216,0.384506 0,0.468795 -1.033341,1.288372 -1.624402,1.288372 -0.651339,0 -1.000125,0.356961 -0.867007,0.887342 0.122107,0.486513 0.688243,0.547656 1.804521,0.19489 z m 10.801791,12.53855 c -1.214967,-0.388616 -2.147843,-1.370256 -2.461634,-2.590316 -0.202939,-0.789059 -0.202879,-1.119209 3.15e-4,-1.907682 0.296436,-1.150047 1.225894,-2.172514 2.311006,-2.542248 0.509739,-0.173683 0.841053,-0.530397 0.780201,-0.840009 -0.0193,-0.09826 -0.160634,-0.272277 -0.314042,-0.386703 -0.270543,-0.20179 -0.295463,-0.202552 -0.828843,-0.0254 -0.30245,0.100456 -0.854002,0.390842 -1.225675,0.645297 -0.371632,0.254455 -0.722747,0.462649 -0.780217,0.462649 -0.06774,0 -0.104488,-2.097674 -0.104488,-5.964952 0,-6.410692 -0.0028,-6.374964 0.546527,-6.880835 0.141449,-0.130251 0.481648,-0.278756 0.755999,-0.33001 0.904761,-0.169028 1.184603,-0.75414 0.576757,-1.205924 -0.2752,-0.204543 -0.305449,-0.205645 -1.00239,-0.03654 -0.395241,0.0959 -0.754232,0.174246 -0.797757,0.174094 -0.04352,-1.06e-4 -0.07914,-1.449985 -0.07914,-3.221853 0,-3.477289 0.02448,-3.656354 0.568174,-4.157801 0.339613,-0.313215 1.276226,-0.415116 2.042825,-0.222253 0.776273,0.195296 2.031634,0.747938 2.031634,0.894378 0,0.07232 -0.108121,0.180752 -0.240269,0.240962 -0.366584,0.167027 -0.918125,0.661701 -1.252638,1.123485 -0.383333,0.529172 -0.39357,0.951093 -0.02887,1.190049 0.36894,0.241739 0.673017,0.108648 1.119236,-0.489875 0.449593,-0.603047 1.020328,-0.890467 1.748834,-0.880707 1.109159,0.01486 2.032125,0.939173 2.028615,2.031582 -0.0024,0.736328 -0.17188,0.976161 -0.7898,1.117414 -1.904013,0.435244 -3.382427,2.065164 -3.511673,3.871542 -0.05711,0.798241 0.109031,1.140661 0.553455,1.140661 0.423516,0 0.60955,-0.246933 0.703482,-0.933764 0.15876,-1.16089 0.764341,-2.032537 1.779919,-2.561948 0.389467,-0.203025 0.63603,-0.247516 1.37169,-0.247516 0.735656,0 0.982219,0.04449 1.371685,0.247516 1.389604,0.724385 2.056763,2.201482 1.680484,3.720625 -0.07717,0.311546 -0.12643,0.635478 -0.109469,0.719851 0.01695,0.08438 0.236848,0.382548 0.488643,0.662605 0.552646,0.614674 0.814183,1.34117 0.808959,2.247107 -0.009,1.563509 -1.065635,2.726298 -2.772978,3.051619 -0.498333,0.09495 -0.822557,0.215592 -0.913582,0.339928 -0.167765,0.229167 -0.08693,0.665078 0.158042,0.852204 0.366875,0.280245 1.623584,0.06143 2.517897,-0.438411 0.269445,-0.150597 0.556318,-0.273812 0.637493,-0.273812 0.218188,0 0.368374,0.494872 0.37294,1.228869 0.0075,1.198162 -0.490908,2.124658 -1.481027,2.753357 -0.327825,0.208159 -0.632372,0.430032 -0.67677,0.493062 -0.0444,0.06302 -0.05156,0.403679 -0.01591,0.757013 0.171897,1.703761 -0.856917,3.37749 -2.411422,3.923037 -0.425965,0.149488 -0.59751,0.292121 -0.944027,0.784907 -0.519342,0.738564 -1.302514,1.290236 -2.135967,1.504596 -0.805932,0.20728 -1.335339,0.19712 -2.07622,-0.0399 z m 2.218175,-0.268938 c 0.703968,-0.248377 1.351925,-0.760281 1.802862,-1.424314 0.293353,-0.431982 0.509715,-0.63932 0.713958,-0.684176 0.517236,-0.113604 1.368044,-0.670988 1.766544,-1.157302 0.589945,-0.719951 0.793433,-1.367406 0.793433,-2.524512 0,-1.079654 0.06689,-1.210993 0.807148,-1.584867 0.873289,-0.441063 1.477466,-1.637019 1.378477,-2.728667 -0.03127,-0.34475 -0.07765,-0.647631 -0.103088,-0.67307 -0.02544,-0.02544 -0.370205,0.105346 -0.766148,0.290634 -0.560159,0.262127 -0.904215,0.347549 -1.550565,0.384964 -0.757598,0.04386 -0.85344,0.02668 -1.089602,-0.19517 -0.176187,-0.16552 -0.258937,-0.357615 -0.258937,-0.601103 0,-0.675985 0.283307,-0.899302 1.292892,-1.019111 0.686357,-0.08145 1.239548,-0.386129 1.746253,-0.961777 1.040758,-1.182365 1.006314,-2.645502 -0.09182,-3.900404 -0.28627,-0.327135 -0.52049,-0.683159 -0.52049,-0.791161 0,-0.108001 0.07483,-0.488446 0.166285,-0.845438 0.263894,-1.030076 0.04118,-1.882035 -0.703063,-2.689439 -1.17088,-1.270257 -3.031284,-1.270257 -4.202165,0 -0.505193,0.54807 -0.725822,1.039806 -0.817848,1.822831 -0.07327,0.623454 -0.279427,0.922343 -0.710851,1.030623 -0.339713,0.08526 -0.807347,-0.147243 -1.004858,-0.49961 -0.217599,-0.388196 -0.03657,-1.611925 0.364131,-2.461594 0.569287,-1.207137 2.010068,-2.351849 3.19952,-2.54205 0.559182,-0.08942 0.673281,-0.240086 0.673281,-0.88906 0,-1.26234 -1.316106,-2.136687 -2.482595,-1.649297 -0.187649,0.07841 -0.493939,0.327683 -0.680643,0.55395 -0.186704,0.226269 -0.411496,0.494489 -0.499542,0.596047 -0.199816,0.230476 -0.87058,0.245353 -1.183399,0.02625 -0.65898,-0.461567 -0.206806,-1.652667 0.943815,-2.486174 l 0.402883,-0.291849 -0.873918,-0.341023 c -0.658322,-0.256893 -1.051489,-0.343709 -1.593722,-0.351911 -0.701898,-0.01062 -0.728809,-0.0011 -1.081523,0.383241 l -0.361714,0.39413 v 3.178269 c 0,2.986567 0.01113,3.173522 0.184649,3.099555 0.101557,-0.04329 0.445797,-0.100493 0.76498,-0.12711 0.481752,-0.04018 0.629617,-0.0095 0.870493,0.180598 0.235536,0.18588 0.290166,0.313869 0.290166,0.679797 0,0.562504 -0.230415,0.792452 -0.919448,0.917595 -0.372933,0.06773 -0.594678,0.188123 -0.847921,0.460353 l -0.342919,0.368636 v 5.858256 5.858259 l 0.433154,-0.313775 c 0.509093,-0.368785 1.454511,-0.742691 1.877892,-0.742691 0.476934,0 0.854385,0.365926 0.854385,0.828296 0,0.509655 -0.223764,0.814087 -0.71255,0.969442 -1.006605,0.319932 -1.947186,1.227104 -2.295306,2.213781 -0.200685,0.568805 -0.202424,1.638132 -0.0036,2.201725 0.343243,0.972855 1.177449,1.8193 2.142268,2.173701 0.52662,0.19344 1.688245,0.19642 2.228743,0.0057 z M 48.282097,79.03032 c -0.364766,-0.463723 -0.218057,-1.749013 0.320032,-2.803757 0.291168,-0.570735 1.186023,-1.511527 1.754736,-1.844817 0.508758,-0.298151 0.545052,-0.45439 0.283722,-1.221352 -0.346353,-1.016491 -1.558584,-1.973207 -2.503285,-1.975636 -0.459734,-0.0012 -0.967599,-0.230678 -1.063493,-0.480571 -0.09856,-0.256836 -0.07885,-0.775647 0.03773,-0.993501 0.175769,-0.328423 0.68757,-0.438566 1.467831,-0.315881 1.979133,0.311188 3.538037,1.77787 3.935623,3.702799 0.110008,0.532606 0.160619,0.61847 0.364534,0.61847 0.130235,0 0.367641,0.112548 0.527565,0.250112 0.588482,0.506192 0.224191,1.543632 -0.542033,1.543632 -0.667091,0 -1.434476,0.316758 -1.961371,0.809612 -0.614586,0.574875 -0.909738,1.149653 -1.004017,1.955218 -0.09161,0.78279 -0.318764,1.033687 -0.935855,1.033687 -0.37456,0 -0.504834,-0.05312 -0.681731,-0.278015 z m 1.152998,-0.144041 c 0.126239,-0.126238 0.21103,-0.351713 0.21103,-0.56118 0,-0.192581 0.07544,-0.604193 0.16765,-0.914691 0.312794,-1.053288 1.66259,-2.111616 2.693163,-2.111616 0.68079,0 1.032295,-0.347354 0.897004,-0.886402 -0.06149,-0.245016 -0.454937,-0.485289 -0.794654,-0.485289 -0.150541,0 -0.218958,-0.135331 -0.314868,-0.622814 -0.380039,-1.931716 -2.098237,-3.52709 -3.959539,-3.676498 -0.58086,-0.04662 -0.695705,-0.02461 -0.891186,0.170879 -0.512459,0.512459 -0.207915,0.930344 0.820867,1.126371 1.613064,0.307355 2.61263,1.312353 2.727407,2.742227 l 0.0519,0.646569 -0.473524,0.277507 c -1.207714,0.707769 -2.072822,2.044416 -2.165993,3.346596 -0.04395,0.614211 -0.02058,0.777673 0.135889,0.95057 0.242252,0.267687 0.625892,0.266734 0.894855,-0.0024 z M 50.496997,68.741121 C 49.604894,68.458743 48.61503,67.51492 48.339328,66.683817 48.182071,66.209778 48.116154,66.13248 47.821118,66.07615 c -0.882955,-0.16859 -2.17126,-0.998294 -2.397261,-1.543909 -0.159227,-0.384406 -0.04475,-0.901056 0.244553,-1.103687 0.390691,-0.273653 0.823403,-0.193958 1.432713,0.26387 1.042875,0.783603 2.116582,0.90699 3.18431,0.36593 0.863426,-0.437529 1.569384,-1.467651 1.574177,-2.297022 0.0051,-0.884427 0.614415,-1.378416 1.330925,-1.079038 0.50875,0.212569 0.618778,0.558664 0.470494,1.479956 -0.169592,1.053678 -0.622467,1.953175 -1.34767,2.676756 -0.569507,0.56823 -1.588933,1.174518 -1.974859,1.174518 -0.27571,0 -0.185176,0.276799 0.201611,0.6164 0.356841,0.313309 0.939624,0.542479 1.382557,0.543668 0.627224,0.0016 0.911293,1.042923 0.41887,1.535343 -0.325704,0.325703 -0.886345,0.335485 -1.844541,0.03218 z m 1.781308,-0.427823 c 0.147354,-0.263407 0.142696,-0.307996 -0.06056,-0.580329 -0.162357,-0.217527 -0.344591,-0.312882 -0.693915,-0.363083 -0.766331,-0.110127 -1.334163,-0.492011 -1.653485,-1.112017 -0.16737,-0.32497 -0.176511,-0.314218 0.435248,-0.511913 1.68509,-0.544545 2.945317,-2.079111 3.104136,-3.779879 0.07518,-0.80512 -0.09404,-1.122756 -0.598167,-1.122756 -0.398177,0 -0.594447,0.276677 -0.669106,0.943236 -0.124643,1.112773 -0.754447,2.015751 -1.787038,2.562155 -0.358608,0.189759 -0.62044,0.23619 -1.342374,0.238053 -0.988803,0.0024 -1.44551,-0.157652 -2.301215,-0.80722 -0.43233,-0.32818 -0.468688,-0.337364 -0.7386,-0.18656 -0.212681,0.118824 -0.291929,0.254092 -0.315941,0.539266 -0.02843,0.337735 0.01914,0.422167 0.42206,0.74894 0.559162,0.453489 1.170474,0.7673 1.806898,0.927556 0.457741,0.115259 0.494147,0.151681 0.664284,0.664555 0.130921,0.394655 0.355179,0.717725 0.82245,1.184837 0.740721,0.740466 1.307053,0.991367 2.168896,0.960887 0.506979,-0.01794 0.596146,-0.05495 0.736434,-0.305728 z"
       id="path12008"
       inkscape:export-filename="/home/loaloa/gdrive/projects/biohybrid MEA/master_thesis/presentation/infoproblem.png"
       inkscape:export-xdpi="900.02002"
       inkscape:export-ydpi="900.02002"
       sodipodi:nodetypes="cssssssscssssssccssscsssccssssssscssssssssscssccssssssssssssscssssscsssssssscssssscsssssssscssssssssssssscssssscscsssssssccsssssscsscccscccssssscccssscssssssssssssssssssssssssssssscccsssssssssssssscsccssscssssssssssssssssssssssssssccssssssssssssssssssscscsssscsssssscssssssssscssssssssssssssssssssssscccssssssssssssssssssssssssssssscssscssssssscccssssscscccssscscsssssssscccssssscsssscsssccssssssssssssscsssssssssssscssssssscs" />
    <path
       style="fill:none;stroke:#cfcfcf;stroke-width:0.744344;stroke-linecap:round;stroke-linejoin:round;stroke-miterlimit:1.5;stroke-dasharray:none;stroke-opacity:1;marker-end:url(#Arrow2Mend)"
       d="M 65.625308,56.098626 C 79.798334,51.248432 130.24196,50.942463 143.77483,54.633749"
       id="path33548"
       sodipodi:nodetypes="cc"
       inkscape:export-filename="/home/loaloa/gdrive/projects/biohybrid MEA/master_thesis/presentation/infoproblem.png"
       inkscape:export-xdpi="900.02002"
       inkscape:export-ydpi="900.02002" />
    <path
       style="opacity:1;fill:none;stroke:#5e5e5e;stroke-width:0.744;stroke-linecap:round;stroke-linejoin:round;stroke-miterlimit:1.5;stroke-dasharray:1.488, 4.464;stroke-dashoffset:0;stroke-opacity:1;marker-end:url(#Arrow2Mend-5)"
       d="M 144.74992,77.828115 C 130.5769,82.678309 80.133276,82.984278 66.600406,79.292992"
       id="path33548-4"
       sodipodi:nodetypes="cc"
       inkscape:export-filename="/home/loaloa/gdrive/projects/biohybrid MEA/master_thesis/presentation/infoproblem.png"
       inkscape:export-xdpi="900.02002"
       inkscape:export-ydpi="900.02002" />
    <g
       id="g1593"
       transform="matrix(0.39573337,0,0,0.39573337,99.503432,23.797835)"
       style="stroke:#cfcfcf;stroke-opacity:1"
       inkscape:export-filename="/home/loaloa/gdrive/projects/biohybrid MEA/master_thesis/presentation/infoproblem.png"
       inkscape:export-xdpi="900.02002"
       inkscape:export-ydpi="900.02002">
      <path
         style="fill:none;fill-opacity:1;fill-rule:evenodd;stroke:#cfcfcf;stroke-width:0.8;stroke-miterlimit:4;stroke-dasharray:none;stroke-opacity:1;filter:url(#filter8074)"
         d="m 144.44671,131.14319 c -0.35326,0 -0.009,-12.30711 -0.53629,-12.08688 -1.05765,0.44192 -0.31188,-0.19119 -0.32181,2.49273 -0.007,1.96839 1.0059,9.44636 0.8581,9.59415 -0.26132,0.26132 -0.61101,-0.69145 -0.77214,-2.10377 -0.38415,-3.36719 -0.81657,-9.37734 -1.00888,-9.57547 -0.11412,-0.11757 -2.45915,0.80746 -4.70228,1.1262 -3.8352,0.54495 -4.19638,0.55538 -6.05685,0.17479 -1.08815,-0.2226 -2.62987,-1.02654 -2.74183,-0.92224 -0.11196,0.1043 0.54382,1.42429 0.77298,2.06904 0.3683,1.03602 1.43056,7.52182 1.44147,8.80109 0.007,0.86427 -0.62374,0.30338 -0.71369,-0.63427 -0.28567,-2.97806 -0.98385,-6.94987 -1.48279,-8.43534 l -0.57751,-1.71935 -2.11666,-1.0909 c -2.29037,-1.18043 -2.53172,-1.1897 -4.50545,-0.17305 -1.29606,0.6676 -2.54641,1.96838 -3.23526,3.36576 -0.28694,0.58208 -0.96274,2.72521 -1.50176,4.7625 -0.53903,2.03729 -0.86105,4.35302 -0.91933,4.53493 0.92472,2.74306 27.55568,2.83508 28.11998,-0.17992 z M 137.9979,119.7784 c 7.17886,-1.04352 8.38426,-1.72541 12.00423,-6.79076 2.00703,-2.80839 3.25153,-8.17796 2.96434,-12.79009 -0.21678,-3.48136 -0.39528,-7.12702 -0.79189,-7.45618 -0.19718,-0.16364 -0.98966,0.74602 -1.75347,1.01181 -1.55434,0.54088 -5.3082,0.38424 -6.56082,-0.27377 -0.48646,-0.25555 -2.72677,-2.935062 -2.78853,-2.873302 -0.0618,0.0618 2.03626,3.395692 2.47233,4.327562 1.3922,2.97507 1.56844,5.4128 0.44806,6.19754 -1.36614,0.95689 -3.00518,-0.10348 -4.18624,-2.70825 -0.85686,-1.88976 -0.86595,-1.93152 -0.41894,-1.92404 0.1819,0.003 0.74744,0.86625 1.25677,1.91823 0.70514,1.45644 1.10293,1.97338 1.6676,2.16712 2.53556,0.86992 2.06595,-3.63311 -0.81925,-7.85579 -0.88903,-1.30116 -1.20156,-2.84893 -1.2165,-6.02468 -0.008,-1.80185 0.10216,-2.46295 0.5565,-3.32534 1.04603,-1.9855 3.77306,-3.326734 6.42051,-3.893194 0.80472,-0.17219 0.61021,-0.792241 0.0568,-1.549081 -0.30268,-0.413932 -1.2164,-0.352307 -3.3044,-0.443627 -4.81362,-0.21053 -10.97413,0.812622 -15.8131,2.626272 -2.75892,1.03406 -3.029,1.08812 -3.66384,0.73346 -1.49347,-0.83434 -0.6533,-2.91535 1.76145,-4.362922 2.87991,-1.726409 9.32564,-3.155015 14.47989,-3.400205 1.70987,-0.0813 3.47715,0.115677 3.47715,0.04168 0,-0.42946 -2.24346,-2.442218 -3.42105,-3.238878 -2.1974,-1.48659 -4.29792,-2.02872 -7.85469,-2.02725 -9.8773,0.004 -16.74997,5.06408 -19.08582,14.051878 -1.00788,3.87808 -1.4879,12.985213 -0.42355,13.768313 0.64852,0.47715 0.78596,0.41374 -0.21847,0.60217 -1.1854,0.22238 -2.69151,2.119457 -3.32645,3.513607 -0.67259,1.476807 -0.63167,3.450567 0.10169,4.904867 0.81271,1.61165 3.25435,2.90034 5.49521,2.90034 l 1.34382,0.0833 0.60031,1.04114 c 1.50504,2.61028 6.25195,8.21775 9.22955,9.6557 1.79421,0.86647 5.22062,1.75976 7.20975,1.87965 0.29104,0.0175 2.13651,-0.20175 4.10104,-0.48732 z m -4.14384,-9.51608 c -1.15081,-0.51523 -1.94157,-1.41095 -1.94157,-2.19928 0,-1.32742 1.54232,-2.8384 2.89727,-2.8384 0.82251,0 0.64825,0.46385 -0.24822,0.66075 -0.92539,0.20325 -1.8553,1.27061 -1.8553,2.12954 0,0.63131 1.35235,1.97221 1.98906,1.97221 0.19852,0 0.42946,0.11083 0.51318,0.2463 0.30218,0.48894 -0.29825,0.50174 -1.35442,0.0289 z m 13.93356,-1.53195 c 7e-5,-0.10914 0.6035,-0.71805 1.34095,-1.35313 1.46082,-1.25805 1.92177,-2.10732 1.67575,-3.08753 -0.21218,-0.84539 -0.9548,-1.03932 -1.96986,-0.51441 -1.03353,0.53446 -1.39587,0.25647 -0.55464,-0.42552 0.7955,-0.64493 2.20037,-0.65634 2.77395,-0.0225 0.49193,0.54357 0.58216,2.19177 0.16287,2.97521 -0.30263,0.56548 -2.80449,2.62636 -3.18833,2.62636 -0.13245,0 -0.24077,-0.0893 -0.24069,-0.19844 z m -9.92201,-0.2475 c -3.64056,-0.41587 -3.25243,-0.75387 0.8599,-0.74883 3.6652,0.004 5.48751,-0.40082 9.03759,-2.01012 1.67147,-0.7577 2.34092,-0.81674 1.59614,-0.14077 -1.64438,1.49244 -8.55359,3.23556 -11.49363,2.89972 z m -10.0292,-11.87969 c -1.8783,-0.5997 -4.19965,-2.97548 -4.76394,-4.87563 -0.85217,-2.86955 -0.35214,-5.44795 1.45454,-7.50046 1.2493,-1.41927 2.75291,-2.17405 4.80495,-2.41196 3.33304,-0.38642 5.78301,0.78251 7.72356,3.68508 0.95556,1.42926 1.05132,1.73629 1.15446,3.70141 0.13513,2.57465 -0.43038,4.06448 -2.12341,5.59403 -2.16146,1.95274 -5.50263,2.68476 -8.25016,1.80753 z m 5.20489,-0.52654 c 1.52224,-0.51868 3.47585,-2.20904 4.21888,-3.65038 0.88321,-1.71325 0.78412,-3.91541 -0.27279,-6.06231 -0.90861,-1.84564 -1.91303,-2.78418 -3.93846,-3.68012 -1.02262,-0.45236 -1.58576,-0.52276 -3.26225,-0.40786 -1.11445,0.0764 -2.39985,0.33208 -2.85646,0.56819 -1.07289,0.55482 -2.56165,2.04897 -3.1228,3.13412 -0.66846,1.29265 -0.78376,4.0833 -0.23675,5.73019 0.56699,1.70706 2.54262,3.76812 4.16046,4.34038 1.50441,0.53213 3.79482,0.54412 5.31017,0.0278 z m -18.19443,20.34406 c 1.4552,-0.50365 3.27069,-1.11544 4.03439,-1.35954 0.76372,-0.2441 1.38879,-0.54489 1.38907,-0.66843 2.6e-4,-0.12354 -0.65209,-0.96292 -1.29168,-2.21357 -0.54506,-1.06579 -1.95336,-2.73872 -2.20125,-3.19675 -0.38666,-0.71443 -0.36807,-0.68694 -1.25269,-0.68694 -2.1723,0 -5.4448,-1.57718 -6.21665,-3.20374 -1.52269,-3.20882 -0.34477,-6.70132 2.99213,-8.87162 0.62213,-0.40464 0.62289,-0.41179 0.32835,-3.11923 -0.99752,-9.16936 0.96875,-16.064132 5.93774,-20.820858 3.36981,-3.22586 7.60488,-4.85419 13.21482,-5.08093 5.52705,-0.2234 8.2337,0.65477 11.17774,3.6266 0.90951,0.91809 1.46213,2.095009 1.46213,2.201249 0,0.21565 1.26741,0.321961 2.36948,0.562298 0.39751,0.0867 1.14165,0.52542 1.65364,0.97496 1.22632,1.076719 0.63143,1.973531 -0.53373,2.885421 -0.81011,0.634002 -0.39117,0.792664 0.0187,1.418234 0.23364,0.35659 0.67782,0.678324 1.13111,0.768984 1.18084,0.23617 3.39308,1.640482 4.19497,2.852222 0.37844,0.57186 0.84125,1.03974 1.02847,1.03974 0.60648,0 3.32477,-2.70935 4.10456,-4.09107 0.41722,-0.73926 1.1793,-1.751892 1.69352,-2.250302 1.00533,-0.9744 1.26929,-1.791399 0.47193,-1.46072 -1.36425,0.56578 -8.45634,0.31148 -9.0939,-0.326079 -0.15256,-0.15256 0.006,-0.69878 0.41535,-1.43127 2.6244,-4.695557 3.07746,-7.718877 2.40507,-16.049569 -0.25499,-3.15926 -0.55168,-5.8389 -0.6593,-5.95476 -0.10763,-0.11585 -0.51524,0.20831 -0.90579,0.72035 -0.93013,1.21947 -2.40405,2.21246 -5.75509,3.8773 -3.43987,1.70895 -3.6704,1.91099 -3.6704,3.21668 0,1.38621 -0.63497,1.19959 -0.73427,-0.2158 -0.26318,-3.75109 -2.15767,-10.68578 -3.82104,-13.98669 -1.53223,-3.04067 -4.19212,-6.76265 -4.83289,-6.76265 -0.15417,0 -0.41695,0.71898 -0.58395,1.59775 -0.34189,1.79901 -1.34127,3.86665 -3.41286,7.06097 -0.77631,1.19703 -1.60472,2.55014 -1.84093,3.00691 -0.42253,0.8171 -0.41631,0.84404 0.38679,1.67262 0.44893,0.46318 0.81623,0.92578 0.81623,1.02799 0,0.51893 -0.78161,0.0133 -2.49413,-1.61341 -1.12705,-1.07059 -2.62568,-2.16685 -3.70051,-2.70695 -1.23963,-0.62292 -2.18379,-1.34949 -3.00934,-2.3158 -1.73077,-2.02588 -4.92084,-4.50777 -7.08201,-5.50983 -1.79928,-0.83426 -5.31046,-1.87866 -5.54096,-1.64815 -0.0616,0.0616 0.18005,1.0319 0.53707,2.15616 1.03605,3.26257 1.26214,5.32807 0.9369,8.55961 -0.36501,3.62676 -0.33177,7.60244 0.0748,8.95275 0.21419,0.71127 0.55458,1.17153 1.038,1.4035 0.39562,0.18984 0.7193,0.42797 0.71928,0.52917 -1e-5,0.14709 -9.46159,0.15544 -14.731546,0.013 -1.1634,-0.0314 -5.91193,1.03547 -5.89756,1.32508 0.005,0.0929 0.74875,0.668932 1.65365,1.280172 2.3549,1.59067 4.79188,4.08318 7.02035,7.18032 1.728246,2.40191 2.004486,2.672647 2.579696,2.52828 0.3543,-0.0889 0.64418,-0.0505 0.64418,0.0855 0,0.32071 -1.01291,1.2397 -1.83488,1.66475 -0.354346,0.18323 -1.604506,1.063676 -2.778126,1.956556 -2.14948,1.635292 -2.75536,1.900152 -6.05833,2.648372 -3.23617,0.73308 -5.65984,2.45257 -4.13786,2.93562 0.31171,0.0989 1.78896,1.34074 3.28278,2.75958 2.33114,2.21411 3.01225,2.70131 4.80613,3.43783 1.14954,0.47197 2.74492,1.16841 3.54528,1.54764 0.80037,0.37924 1.660396,0.78049 1.911176,0.89168 0.31006,0.13747 0.70326,-0.006 1.22882,-0.44815 0.68901,-0.57977 1.35793,-0.84518 1.35793,-0.5388 0,0.34507 -7.124686,7.21888 -9.194276,8.87052 -1.34607,1.07424 -2.4474,2.09393 -2.4474,2.26597 0,0.32283 3.24937,0.9608 7.37821,1.44861 2.317936,0.27385 4.947166,1.26082 5.214476,1.95742 0.13244,0.34511 -1.42989,2.84028 -3.5245,5.62893 -0.37061,0.49341 -0.51969,0.90303 -0.36373,0.99942 0.78114,0.48277 4.5063,0.44302 7.03826,-0.0751 2.86212,-0.58569 4.43011,-0.4874 4.57925,0.28703 0.0465,0.24139 -0.28022,1.57753 -0.72601,2.96921 -0.44579,1.39167 -0.81053,2.65741 -0.81053,2.81275 0,0.3804 1.12194,0.12367 4.36562,-0.99896 z m 41.11388,-20.49114 c 0.90052,-0.89218 1.59434,-1.75107 1.54182,-1.90863 -0.0525,-0.15757 -0.92045,-0.7911 -1.92873,-1.40785 l -1.8749,-1.288035 -0.55713,0.758775 c -0.49481,0.673892 -0.59576,0.60538 -0.17727,2.43469 0.23184,1.01342 0.4738,2.11047 0.53769,2.43789 0.18217,0.93355 0.69673,0.71863 2.45852,-1.02684 z m -4.4249,-3.27617 c 1.67126,-1.16229 2.33705,-2.64426 2.33705,-5.20198 0,-4.64605 -2.34001,-7.483859 -6.34155,-7.552919 -4.2411,-0.0732 -6.89315,2.726769 -6.93369,7.035769 -0.0252,2.67542 1.30965,4.9693 3.55224,6.10449 0.96282,0.48738 1.49091,0.55773 3.68179,0.49046 2.35026,-0.0722 2.65073,-0.14321 3.70416,-0.87582 z m -23.52027,-13.2544 c 4.73506,-1.851602 12.06123,-2.456024 18.04339,-2.289894 3.07519,0.0854 2.6852,-0.393657 2.7588,-0.907697 0.37853,-2.643819 -8.46855,-3.285077 -16.34156,-1.2395 -4.91256,1.276389 -7.97205,3.027671 -7.97205,4.563261 0,1.09278 0.43415,1.07718 3.51142,-0.12617 z"
         id="path1601"
         sodipodi:nodetypes="cssssssssccsscssssccsssssssssssssscsssssssssscsssssscssssssssssssssssssssssssssssssssssssssssssssssssssssssssssssssssssssssscsssssssssssssssssssssssscsssssssssssscsssssssssssssssscssssssssssssssssss"
         inkscape:export-filename="/home/loaloa/Pictures/path1601.png"
         inkscape:export-xdpi="299.98203"
         inkscape:export-ydpi="299.98203"
         transform="matrix(-1,0,0,1,293.48956,21.921429)" />
      <path
         d="m 69.047285,12.97014 c 0.99004,-2.58009 -0.38007,-4.57013 -3.14653,-4.57013 -2.24399,0 -2.5547,0.37456 -2.28137,2.74999 0.36473,3.17068 4.39148,4.52096 5.4279,1.82014 z M 6.4358146,4.90002 c 1.66764,-2.00942 -0.33713,-4.50001999 -3.62245,-4.50001999 -2.978,0 -3.28547,3.44371999 -0.4433,4.96482999 2.48429,1.32956 2.58622,1.31788 4.06575,-0.46481 z"
         style="fill:#d3d3d3;fill-opacity:1;fill-rule:evenodd;stroke:#cfcfcf;stroke-width:4.20283;stroke-miterlimit:4;stroke-dasharray:none;stroke-opacity:1;filter:url(#filter8074)"
         id="path31432"
         transform="matrix(0.26458333,0,0,0.26458333,141.62767,106.88083)" />
    </g>
    <text
       xml:space="preserve"
       style="font-style:normal;font-variant:normal;font-weight:normal;font-stretch:normal;font-size:3.88056px;line-height:1.25;font-family:monospace;-inkscape-font-specification:'monospace, Normal';font-variant-ligatures:normal;font-variant-caps:normal;font-variant-numeric:normal;font-variant-east-asian:normal;stroke-width:0.264583"
       x="93.582047"
       y="67.885712"
       id="text3000"
       inkscape:export-filename="/home/loaloa/gdrive/projects/biohybrid MEA/master_thesis/presentation/infoproblem.png"
       inkscape:export-xdpi="900.02002"
       inkscape:export-ydpi="900.02002"><tspan
         sodipodi:role="line"
         id="tspan2998"
         style="font-style:normal;font-variant:normal;font-weight:normal;font-stretch:normal;font-size:3.88056px;font-family:monospace;-inkscape-font-specification:'monospace, Normal';font-variant-ligatures:normal;font-variant-caps:normal;font-variant-numeric:normal;font-variant-east-asian:normal;fill:#dfdfdf;fill-opacity:1;stroke-width:0.264583"
         x="93.582047"
         y="67.885712">Electrical signals</tspan></text>
    <path
       d="m 89.193923,66.036712 c -0.0764,-0.144831 -0.226391,-0.235536 -0.390145,-0.235536 h -0.82936 l 1.003236,-2.006474 c 0.06822,-0.13665 0.0609,-0.298903 -0.01936,-0.428776 -0.08028,-0.129969 -0.222079,-0.20905 -0.37487,-0.20905 H 86.37984 c -0.189798,0 -0.358083,0.121377 -0.418117,0.30138 l -1.101792,3.305377 c -0.04476,0.134392 -0.02216,0.282114 0.06068,0.397031 0.08285,0.114917 0.215841,0.183021 0.357435,0.183021 h 1.02884 l -0.3626,2.356913 c -0.03121,0.203141 0.08199,0.40101 0.273079,0.476758 0.05294,0.02098 0.108031,0.03099 0.162253,0.03099 0.141814,0 0.279111,-0.06854 0.363467,-0.190983 l 2.423943,-3.525732 c 0.09274,-0.134928 0.103072,-0.310102 0.0269,-0.454917 z"
       id="path35498"
       style="fill:#dfdfdf;fill-opacity:1;stroke-width:0.0137723"
       inkscape:export-filename="/home/loaloa/gdrive/projects/biohybrid MEA/master_thesis/presentation/infoproblem.png"
       inkscape:export-xdpi="900.02002"
       inkscape:export-ydpi="900.02002" />
  </g>
</svg>
